<mxfile host="app.diagrams.net" agent="Mozilla/5.0 (Windows NT 10.0; Win64; x64) AppleWebKit/537.36 (KHTML, like Gecko) Chrome/126.0.0.0 Safari/537.36" version="24.7.7">
  <diagram name="Page-1" id="w3RHZ2_j4D2kVHN4OV_M">
    <mxGraphModel dx="1399" dy="1865" grid="1" gridSize="10" guides="1" tooltips="1" connect="1" arrows="1" fold="1" page="1" pageScale="1" pageWidth="850" pageHeight="1100" math="0" shadow="0">
      <root>
        <mxCell id="0" />
        <mxCell id="1" parent="0" />
        <mxCell id="53jQ0BVINCxKonlIrl2N-1" value="SQL Database&lt;div&gt;&lt;br&gt;&lt;/div&gt;" style="shape=datastore;whiteSpace=wrap;html=1;" vertex="1" parent="1">
          <mxGeometry x="225" y="650" width="400" height="420" as="geometry" />
        </mxCell>
        <mxCell id="53jQ0BVINCxKonlIrl2N-27" style="edgeStyle=orthogonalEdgeStyle;rounded=0;orthogonalLoop=1;jettySize=auto;html=1;entryX=0.5;entryY=0;entryDx=0;entryDy=0;fillColor=#d5e8d4;strokeColor=#82b366;" edge="1" parent="1" source="53jQ0BVINCxKonlIrl2N-3" target="53jQ0BVINCxKonlIrl2N-19">
          <mxGeometry relative="1" as="geometry">
            <Array as="points">
              <mxPoint x="10" y="860" />
              <mxPoint x="10" y="-590" />
              <mxPoint x="210" y="-590" />
            </Array>
          </mxGeometry>
        </mxCell>
        <mxCell id="53jQ0BVINCxKonlIrl2N-3" value="Category" style="shape=datastore;whiteSpace=wrap;html=1;fillColor=#d5e8d4;strokeColor=#82b366;" vertex="1" parent="1">
          <mxGeometry x="265" y="820" width="80" height="80" as="geometry" />
        </mxCell>
        <mxCell id="53jQ0BVINCxKonlIrl2N-34" style="edgeStyle=orthogonalEdgeStyle;rounded=0;orthogonalLoop=1;jettySize=auto;html=1;entryX=0.5;entryY=0;entryDx=0;entryDy=0;fillColor=#f8cecc;strokeColor=#b85450;" edge="1" parent="1" source="53jQ0BVINCxKonlIrl2N-4" target="53jQ0BVINCxKonlIrl2N-29">
          <mxGeometry relative="1" as="geometry">
            <Array as="points">
              <mxPoint x="840" y="860" />
              <mxPoint x="840" y="-590" />
              <mxPoint x="640" y="-590" />
            </Array>
          </mxGeometry>
        </mxCell>
        <mxCell id="53jQ0BVINCxKonlIrl2N-4" value="Product" style="shape=datastore;whiteSpace=wrap;html=1;fillColor=#f8cecc;strokeColor=#b85450;" vertex="1" parent="1">
          <mxGeometry x="495" y="820" width="80" height="80" as="geometry" />
        </mxCell>
        <mxCell id="53jQ0BVINCxKonlIrl2N-55" style="edgeStyle=orthogonalEdgeStyle;rounded=0;orthogonalLoop=1;jettySize=auto;html=1;exitX=0.5;exitY=1;exitDx=0;exitDy=0;entryX=0.5;entryY=1;entryDx=0;entryDy=0;fillColor=#fff2cc;strokeColor=#d6b656;" edge="1" parent="1" source="53jQ0BVINCxKonlIrl2N-5" target="53jQ0BVINCxKonlIrl2N-43">
          <mxGeometry relative="1" as="geometry">
            <Array as="points">
              <mxPoint x="305" y="1090" />
              <mxPoint x="640" y="1090" />
            </Array>
          </mxGeometry>
        </mxCell>
        <mxCell id="53jQ0BVINCxKonlIrl2N-5" value="Order Details" style="shape=datastore;whiteSpace=wrap;html=1;fillColor=#fff2cc;strokeColor=#d6b656;" vertex="1" parent="1">
          <mxGeometry x="265" y="950" width="80" height="80" as="geometry" />
        </mxCell>
        <mxCell id="53jQ0BVINCxKonlIrl2N-7" value="Splash Screen with Logo" style="swimlane;whiteSpace=wrap;html=1;" vertex="1" parent="1">
          <mxGeometry x="50" y="-1040" width="320" height="440" as="geometry" />
        </mxCell>
        <mxCell id="53jQ0BVINCxKonlIrl2N-8" value="RinZin Divine Beauty" style="text;html=1;align=center;verticalAlign=middle;resizable=0;points=[];autosize=1;strokeColor=none;fillColor=none;" vertex="1" parent="53jQ0BVINCxKonlIrl2N-7">
          <mxGeometry x="80" y="200" width="140" height="30" as="geometry" />
        </mxCell>
        <mxCell id="53jQ0BVINCxKonlIrl2N-10" value="Home Screen" style="swimlane;whiteSpace=wrap;html=1;" vertex="1" parent="1">
          <mxGeometry x="480" y="-1040" width="320" height="440" as="geometry" />
        </mxCell>
        <mxCell id="53jQ0BVINCxKonlIrl2N-13" value="MINTO" style="whiteSpace=wrap;html=1;" vertex="1" parent="53jQ0BVINCxKonlIrl2N-10">
          <mxGeometry x="30" y="60" width="120" height="60" as="geometry" />
        </mxCell>
        <mxCell id="53jQ0BVINCxKonlIrl2N-14" value="CAMPBELLTOWN" style="whiteSpace=wrap;html=1;" vertex="1" parent="53jQ0BVINCxKonlIrl2N-10">
          <mxGeometry x="170" y="60" width="120" height="60" as="geometry" />
        </mxCell>
        <mxCell id="53jQ0BVINCxKonlIrl2N-12" value="" style="shape=flexArrow;endArrow=classic;html=1;rounded=0;" edge="1" parent="1">
          <mxGeometry width="50" height="50" relative="1" as="geometry">
            <mxPoint x="370" y="-830" as="sourcePoint" />
            <mxPoint x="480" y="-830" as="targetPoint" />
          </mxGeometry>
        </mxCell>
        <mxCell id="53jQ0BVINCxKonlIrl2N-15" style="edgeStyle=orthogonalEdgeStyle;rounded=0;orthogonalLoop=1;jettySize=auto;html=1;fillColor=#d5e8d4;strokeColor=#82b366;" edge="1" parent="1" source="53jQ0BVINCxKonlIrl2N-13">
          <mxGeometry relative="1" as="geometry">
            <mxPoint x="320" y="820" as="targetPoint" />
            <Array as="points">
              <mxPoint x="570" y="-990" />
              <mxPoint x="820" y="-990" />
              <mxPoint x="820" y="800" />
              <mxPoint x="320" y="800" />
              <mxPoint x="320" y="820" />
            </Array>
          </mxGeometry>
        </mxCell>
        <mxCell id="53jQ0BVINCxKonlIrl2N-19" value="Category Page" style="swimlane;whiteSpace=wrap;html=1;fillColor=#d5e8d4;strokeColor=#82b366;" vertex="1" parent="1">
          <mxGeometry x="50" y="-570" width="320" height="440" as="geometry" />
        </mxCell>
        <mxCell id="53jQ0BVINCxKonlIrl2N-20" value="Eid Offer" style="whiteSpace=wrap;html=1;" vertex="1" parent="53jQ0BVINCxKonlIrl2N-19">
          <mxGeometry x="30" y="60" width="260" height="40" as="geometry" />
        </mxCell>
        <mxCell id="53jQ0BVINCxKonlIrl2N-22" value="Hair Cut" style="whiteSpace=wrap;html=1;" vertex="1" parent="53jQ0BVINCxKonlIrl2N-19">
          <mxGeometry x="30" y="210" width="260" height="40" as="geometry" />
        </mxCell>
        <mxCell id="53jQ0BVINCxKonlIrl2N-23" value="Hair Style" style="whiteSpace=wrap;html=1;" vertex="1" parent="53jQ0BVINCxKonlIrl2N-19">
          <mxGeometry x="30" y="160" width="260" height="40" as="geometry" />
        </mxCell>
        <mxCell id="53jQ0BVINCxKonlIrl2N-24" value="Facial" style="whiteSpace=wrap;html=1;" vertex="1" parent="53jQ0BVINCxKonlIrl2N-19">
          <mxGeometry x="30" y="110" width="260" height="40" as="geometry" />
        </mxCell>
        <mxCell id="53jQ0BVINCxKonlIrl2N-26" style="edgeStyle=orthogonalEdgeStyle;rounded=0;orthogonalLoop=1;jettySize=auto;html=1;fillColor=#f8cecc;strokeColor=#b85450;" edge="1" parent="1" source="53jQ0BVINCxKonlIrl2N-24">
          <mxGeometry relative="1" as="geometry">
            <mxPoint x="550" y="900" as="targetPoint" />
            <Array as="points">
              <mxPoint x="20" y="-440" />
              <mxPoint x="20" y="930" />
              <mxPoint x="550" y="930" />
              <mxPoint x="550" y="900" />
            </Array>
          </mxGeometry>
        </mxCell>
        <mxCell id="53jQ0BVINCxKonlIrl2N-29" value="Product Page" style="swimlane;whiteSpace=wrap;html=1;fillColor=#f8cecc;strokeColor=#b85450;" vertex="1" parent="1">
          <mxGeometry x="480" y="-570" width="320" height="440" as="geometry" />
        </mxCell>
        <mxCell id="53jQ0BVINCxKonlIrl2N-30" value="Clean Up" style="whiteSpace=wrap;html=1;" vertex="1" parent="53jQ0BVINCxKonlIrl2N-29">
          <mxGeometry x="30" y="60" width="260" height="40" as="geometry" />
        </mxCell>
        <mxCell id="53jQ0BVINCxKonlIrl2N-31" value="Party Glow" style="whiteSpace=wrap;html=1;" vertex="1" parent="53jQ0BVINCxKonlIrl2N-29">
          <mxGeometry x="30" y="210" width="260" height="40" as="geometry" />
        </mxCell>
        <mxCell id="53jQ0BVINCxKonlIrl2N-32" value="Anti-Tan Facial" style="whiteSpace=wrap;html=1;" vertex="1" parent="53jQ0BVINCxKonlIrl2N-29">
          <mxGeometry x="30" y="160" width="260" height="40" as="geometry" />
        </mxCell>
        <mxCell id="53jQ0BVINCxKonlIrl2N-33" value="Fruit Facial" style="whiteSpace=wrap;html=1;" vertex="1" parent="53jQ0BVINCxKonlIrl2N-29">
          <mxGeometry x="30" y="110" width="260" height="40" as="geometry" />
        </mxCell>
        <mxCell id="53jQ0BVINCxKonlIrl2N-37" value="" style="shape=flexArrow;endArrow=classic;html=1;rounded=0;" edge="1" parent="1">
          <mxGeometry width="50" height="50" relative="1" as="geometry">
            <mxPoint x="370" y="-370" as="sourcePoint" />
            <mxPoint x="480" y="-370" as="targetPoint" />
          </mxGeometry>
        </mxCell>
        <mxCell id="53jQ0BVINCxKonlIrl2N-38" value="Date &amp;amp; Time" style="swimlane;whiteSpace=wrap;html=1;fillColor=#dae8fc;strokeColor=#6c8ebf;" vertex="1" parent="1">
          <mxGeometry x="50" y="-100" width="320" height="440" as="geometry" />
        </mxCell>
        <mxCell id="53jQ0BVINCxKonlIrl2N-39" value="Select Date" style="whiteSpace=wrap;html=1;" vertex="1" parent="53jQ0BVINCxKonlIrl2N-38">
          <mxGeometry x="30" y="60" width="260" height="140" as="geometry" />
        </mxCell>
        <mxCell id="53jQ0BVINCxKonlIrl2N-40" value="Select Time" style="whiteSpace=wrap;html=1;" vertex="1" parent="53jQ0BVINCxKonlIrl2N-38">
          <mxGeometry x="30" y="210" width="260" height="130" as="geometry" />
        </mxCell>
        <mxCell id="53jQ0BVINCxKonlIrl2N-50" value="Confirm" style="rounded=1;whiteSpace=wrap;html=1;" vertex="1" parent="53jQ0BVINCxKonlIrl2N-38">
          <mxGeometry x="30" y="370" width="260" height="40" as="geometry" />
        </mxCell>
        <mxCell id="53jQ0BVINCxKonlIrl2N-43" value="Cart Items" style="swimlane;whiteSpace=wrap;html=1;fillColor=#fff2cc;strokeColor=#d6b656;" vertex="1" parent="1">
          <mxGeometry x="480" y="-100" width="320" height="440" as="geometry" />
        </mxCell>
        <mxCell id="53jQ0BVINCxKonlIrl2N-44" value="Clean Up" style="whiteSpace=wrap;html=1;" vertex="1" parent="53jQ0BVINCxKonlIrl2N-43">
          <mxGeometry x="30" y="110" width="260" height="40" as="geometry" />
        </mxCell>
        <mxCell id="53jQ0BVINCxKonlIrl2N-45" value="Party Glow" style="whiteSpace=wrap;html=1;" vertex="1" parent="53jQ0BVINCxKonlIrl2N-43">
          <mxGeometry x="30" y="260" width="260" height="40" as="geometry" />
        </mxCell>
        <mxCell id="53jQ0BVINCxKonlIrl2N-46" value="Anti-Tan Facial" style="whiteSpace=wrap;html=1;" vertex="1" parent="53jQ0BVINCxKonlIrl2N-43">
          <mxGeometry x="30" y="210" width="260" height="40" as="geometry" />
        </mxCell>
        <mxCell id="53jQ0BVINCxKonlIrl2N-47" value="Fruit Facial" style="whiteSpace=wrap;html=1;" vertex="1" parent="53jQ0BVINCxKonlIrl2N-43">
          <mxGeometry x="30" y="160" width="260" height="40" as="geometry" />
        </mxCell>
        <mxCell id="53jQ0BVINCxKonlIrl2N-57" value="+Add More" style="rounded=1;whiteSpace=wrap;html=1;" vertex="1" parent="53jQ0BVINCxKonlIrl2N-43">
          <mxGeometry x="150" y="50" width="140" height="40" as="geometry" />
        </mxCell>
        <mxCell id="53jQ0BVINCxKonlIrl2N-48" value="" style="shape=flexArrow;endArrow=classic;html=1;rounded=0;" edge="1" parent="1">
          <mxGeometry width="50" height="50" relative="1" as="geometry">
            <mxPoint x="370" y="100" as="sourcePoint" />
            <mxPoint x="480" y="100" as="targetPoint" />
          </mxGeometry>
        </mxCell>
        <mxCell id="53jQ0BVINCxKonlIrl2N-51" value="Purchases" style="shape=datastore;whiteSpace=wrap;html=1;" vertex="1" parent="1">
          <mxGeometry x="495" y="950" width="80" height="80" as="geometry" />
        </mxCell>
        <mxCell id="53jQ0BVINCxKonlIrl2N-52" style="edgeStyle=orthogonalEdgeStyle;rounded=0;orthogonalLoop=1;jettySize=auto;html=1;entryX=0;entryY=0.5;entryDx=0;entryDy=0;fillColor=#fff2cc;strokeColor=#d6b656;" edge="1" parent="1" source="53jQ0BVINCxKonlIrl2N-50" target="53jQ0BVINCxKonlIrl2N-5">
          <mxGeometry relative="1" as="geometry" />
        </mxCell>
        <mxCell id="53jQ0BVINCxKonlIrl2N-58" style="edgeStyle=orthogonalEdgeStyle;rounded=0;orthogonalLoop=1;jettySize=auto;html=1;entryX=0.781;entryY=0;entryDx=0;entryDy=0;entryPerimeter=0;" edge="1" parent="1" source="53jQ0BVINCxKonlIrl2N-57" target="53jQ0BVINCxKonlIrl2N-19">
          <mxGeometry relative="1" as="geometry">
            <Array as="points">
              <mxPoint x="430" y="-30" />
              <mxPoint x="430" y="-590" />
              <mxPoint x="300" y="-590" />
            </Array>
          </mxGeometry>
        </mxCell>
      </root>
    </mxGraphModel>
  </diagram>
</mxfile>
